<svg xmlns="http://www.w3.org/2000/svg" viewBox="0 0 900 700"><defs><radialGradient id="g" cx="62%" cy="40%" r="70%"><stop offset="0%" stop-color="#1b507d"/><stop offset="55%" stop-color="#071a33"/><stop offset="100%" stop-color="#031023"/></radialGradient><linearGradient id="metal" x1="0" x2="1"><stop offset="0%" stop-color="#d9e7f5"/><stop offset="45%" stop-color="#7e98b3"/><stop offset="100%" stop-color="#eaf4ff"/></linearGradient></defs><rect width="900" height="700" rx="42" fill="url(#g)"/><g opacity=".45" fill="none" stroke="#5aa0d6"><circle cx="520" cy="340" r="230"/><circle cx="520" cy="340" r="300" stroke-dasharray="7 9"/><circle cx="520" cy="340" r="160"/></g><g transform="translate(258 115)"><path d="M266 96 L366 40 L330 166 Z" fill="#f59e0b"/><path d="M266 96 L176 56 L208 154 Z" fill="#f0c35a"/><path d="M266 96 L242 200 L330 166 Z" fill="#d97706"/><path d="M266 96 L208 154 L242 200 Z" fill="#fb923c"/><path d="M176 56 L242 200 L120 170 Z" fill="#f59e0b"/></g><g transform="translate(310 255)" stroke="#0f172a" stroke-width="5" stroke-linecap="round" stroke-linejoin="round"><g fill="url(#metal)"><path d="M120 280 C140 225 170 184 205 142 L252 184 C224 220 200 256 184 304 Z"/><rect x="88" y="255" width="95" height="155" rx="34"/><rect x="188" y="163" width="63" height="154" rx="28" transform="rotate(-22 219 240)"/><rect x="240" y="120" width="55" height="138" rx="25" transform="rotate(-35 267 189)"/><rect x="296" y="96" width="48" height="120" rx="22" transform="rotate(-45 320 156)"/><rect x="350" y="92" width="42" height="104" rx="20" transform="rotate(-52 371 144)"/><rect x="410" y="108" width="38" height="100" rx="18" transform="rotate(-58 429 158)"/></g><g fill="#0ea5e9" stroke="#99f6e4" stroke-width="3"><circle cx="137" cy="300" r="14"/><circle cx="224" cy="214" r="10"/><circle cx="276" cy="164" r="9"/><circle cx="323" cy="134" r="8"/><circle cx="373" cy="128" r="7"/><circle cx="428" cy="145" r="7"/></g></g></svg>